<svg width="73.481445" height="23.703613" viewBox="0 0 73.4814 23.7036" fill="none" xmlns="http://www.w3.org/2000/svg" xmlns:xlink="http://www.w3.org/1999/xlink">
	<desc>
			Created with Pixso.
	</desc>
	<defs>
		<linearGradient id="paint_linear_1_1148_0" x1="-4.941734" y1="11.636368" x2="73.481461" y2="11.636368" gradientUnits="userSpaceOnUse">
			<stop stop-color="#638FFF"/>
			<stop offset="1.000000" stop-color="#8F00FF"/>
		</linearGradient>
	</defs>
	<path id="Vector" d="M72.9707 16.2017C72.8457 16.2017 72.7319 16.2827 72.6733 16.4531C71.9199 18.6147 70.9023 19.9009 70.0645 19.9009C69.5835 19.9009 69.3887 19.3613 69.3887 18.5151C69.3887 16.3975 70.6489 11.9072 71.2842 9.85986C71.3579 9.6123 71.4058 9.39062 71.4058 9.20215C71.4058 8.60693 71.0825 8.31494 70.2812 8.31494C69.418 8.31494 68.4883 8.65527 67.5845 10.248C67.2725 8.84375 66.3281 8.22998 65.0093 8.22998C63.4844 8.22998 62.0112 9.2168 60.7983 10.8169C59.5859 12.4175 58.1606 12.9419 57.0879 12.6836C57.8594 10.7837 58.146 9.36475 58.146 8.31152C58.146 6.65967 57.334 5.66162 56.0225 5.66162C54.0273 5.66162 52.8774 7.57617 52.8774 9.59033C52.8774 11.146 53.5791 12.7461 55.1221 13.5225C53.8286 16.4639 51.9404 19.125 51.2241 19.125C50.2979 19.125 50.0264 14.5684 50.0776 11.3086C50.1108 9.43848 50.2651 9.34229 50.2651 8.77686C50.2651 8.45166 50.0557 8.22998 49.2144 8.22998C47.2524 8.22998 46.646 9.90039 46.5542 11.8184C46.5244 12.5474 46.4111 13.2705 46.2163 13.9731C45.397 16.915 43.7065 19.147 42.6045 19.147C42.0938 19.147 41.9541 18.6333 41.9541 17.9609C41.9541 15.8433 43.1338 13.1973 43.1338 10.939C43.1338 9.27979 42.4097 8.22998 41.0469 8.22998C39.4414 8.22998 37.3174 10.1519 35.3076 13.7515C35.9692 10.9946 36.2412 8.32617 34.2827 8.32617C33.8579 8.33252 33.4409 8.44141 33.0669 8.64404C32.9409 8.70312 32.8359 8.79883 32.7651 8.91895C32.6943 9.03906 32.6611 9.17725 32.6699 9.31689C32.8574 12.251 30.3184 19.7681 27.9121 19.7681C27.4746 19.7681 27.2617 19.291 27.2617 18.5225C27.2617 16.4014 28.5181 11.9219 29.1499 9.87109C29.231 9.60498 29.2749 9.37598 29.2749 9.17627C29.2749 8.61426 28.9297 8.32617 28.147 8.32617C27.2871 8.32617 26.354 8.65527 25.4541 10.248C25.1382 8.84375 24.1938 8.22998 22.875 8.22998C20.7109 8.22998 18.293 10.5327 17.2314 13.5332C15.8096 17.5396 12.9438 21.4087 9.08594 21.4087C5.58447 21.4087 3.73633 18.478 3.73633 13.8477C3.73633 7.16211 8.61572 1.7002 12.2349 1.7002C13.9653 1.7002 14.792 2.80859 14.792 4.50879C14.792 6.56689 13.6494 7.52441 13.6494 8.30762C13.6494 8.54785 13.8477 8.78467 14.2407 8.78467C15.813 8.78467 17.665 6.92578 17.665 4.39062C17.665 1.85498 15.6187 0 11.9995 0C6.01807 0 0 6.05322 0 13.8105C0 19.9824 3.02734 23.7036 8.26318 23.7036C11.834 23.7036 14.9536 20.9097 16.6362 17.6504C16.8271 20.3516 18.0469 21.7637 19.9062 21.7637C21.5596 21.7637 22.897 20.7729 23.9185 19.0322C24.3115 20.8545 25.355 21.7451 26.7104 21.7451C28.2646 21.7451 29.5654 20.7544 30.8032 18.9141C30.7852 20.3594 31.1118 21.7192 32.3574 21.7192C32.9453 21.7192 33.647 21.5825 33.772 21.0649C35.0835 15.6104 38.3242 11.1572 39.3164 11.1572C39.6104 11.1572 39.6909 11.4414 39.6909 11.7778C39.6909 13.2598 38.6514 16.2979 38.6514 18.2378C38.6514 20.3335 39.5366 21.7192 41.3662 21.7192C43.3945 21.7192 45.4556 19.2207 46.8296 15.5698C47.2598 18.9805 48.189 21.7339 49.644 21.7339C51.4297 21.7339 54.6006 17.9531 56.522 13.9512C57.2749 14.0469 58.4067 14.021 59.4941 13.249C59.0312 14.4277 58.7593 15.7173 58.7593 17.0073C58.7593 20.7212 60.5229 21.7637 62.0405 21.7637C63.6899 21.7637 65.0273 20.7729 66.0527 19.0322C66.3906 20.603 67.2539 21.7412 68.8413 21.7412C71.3247 21.7412 73.4814 19.1875 73.4814 17.0923C73.4814 16.5381 73.2461 16.2017 72.9707 16.2017ZM21.4199 19.7051C20.417 19.7051 20.0239 18.689 20.0239 17.1733C20.0239 14.5425 21.813 10.1479 23.7051 10.1479C24.5317 10.1479 24.8442 11.1274 24.8442 12.3247C24.8442 14.9966 23.1431 19.7051 21.4199 19.7051ZM55.7759 11.8521C55.1772 11.1348 54.9604 10.1592 54.9604 9.29102C54.9604 8.21924 55.3501 7.31348 55.8164 7.31348C56.2832 7.31348 56.4263 7.77539 56.4263 8.41846C56.4263 9.49414 56.0444 11.0645 55.7759 11.8521ZM63.5542 19.7051C62.5513 19.7051 62.1582 18.5371 62.1582 17.1733C62.1582 14.6348 63.9473 10.1479 65.854 10.1479C66.6807 10.1479 66.9746 11.1201 66.9746 12.3247C66.9746 14.9966 65.3027 19.7051 63.5542 19.7051Z" fill="url(#paint_linear_1_1148_0)" fill-opacity="1.000000" fill-rule="nonzero"/>
</svg>
