<svg width="246.000000" height="366.000000" viewBox="0 0 246 366" fill="none" xmlns="http://www.w3.org/2000/svg" xmlns:xlink="http://www.w3.org/1999/xlink">
	<desc>
			Created with Pixso.
	</desc>
	<defs>
		<clipPath id="clip1_1803">
			<rect id="x" width="24.000000" height="24.000000" transform="translate(215.000000 7.000000)" fill="white" fill-opacity="0"/>
		</clipPath>
		<clipPath id="clip1_1807">
			<rect id="edit-2" width="17.000000" height="17.000000" transform="translate(18.000000 298.000000)" fill="white" fill-opacity="0"/>
		</clipPath>
		<clipPath id="clip1_1811">
			<rect id="chevron-down" width="14.000000" height="14.000000" transform="translate(43.000000 332.000000)" fill="white" fill-opacity="0"/>
		</clipPath>
		<linearGradient id="paint_linear_1_1797_0" x1="246.000031" y1="38.000000" x2="246.000031" y2="280.000031" gradientUnits="userSpaceOnUse">
			<stop stop-color="#E93339"/>
			<stop offset="1.000000" stop-color="#010000"/>
		</linearGradient>
		<linearGradient id="paint_linear_1_1797_1" x1="5.000000" y1="131.000000" x2="171.999985" y2="131.000000" gradientUnits="userSpaceOnUse">
			<stop stop-color="#FFFFFF"/>
			<stop offset="1.000000" stop-color="#FFFFFF" stop-opacity="0.000000"/>
		</linearGradient>
		<linearGradient id="paint_linear_1_1797_2" x1="77.500000" y1="280.000000" x2="77.500000" y2="169.000015" gradientUnits="userSpaceOnUse">
			<stop stop-color="#000000"/>
			<stop offset="1.000000" stop-color="#000000" stop-opacity="0.000000"/>
		</linearGradient>
		<linearGradient id="paint_linear_1_1805_0" x1="49.500000" y1="308.000000" x2="233.999985" y2="308.000000" gradientUnits="userSpaceOnUse">
			<stop stop-color="#AA2A1E"/>
			<stop offset="0.152980" stop-color="#EC642B"/>
			<stop offset="0.291158" stop-color="#F5F550"/>
			<stop offset="0.435618" stop-color="#76FC4E"/>
			<stop offset="0.581647" stop-color="#4DAAF8"/>
			<stop offset="0.732388" stop-color="#0410F5"/>
			<stop offset="0.864285" stop-color="#DF30EC"/>
			<stop offset="1.000000" stop-color="#FF1900"/>
		</linearGradient>
	</defs>
	<rect id="Color box" width="240.000000" height="366.000000" transform="translate(6.000000 0.000000)" fill="#2C2C2C" fill-opacity="1.000000"/>
	<rect id="Frame 142033" width="241.000000" height="242.000000" transform="translate(5.000000 38.000000)" fill="url(#paint_linear_1_1797_0)" fill-opacity="1.000000"/>
	<rect id="Frame 142033" width="241.000000" height="242.000000" transform="translate(5.000000 38.000000)" fill="url(#paint_linear_1_1797_1)" fill-opacity="1.000000"/>
	<rect id="Frame 142033" width="241.000000" height="242.000000" transform="translate(5.000000 38.000000)" fill="url(#paint_linear_1_1797_2)" fill-opacity="0.900000"/>
	<rect id="Rectangle 1285" x="6.000000" width="240.000000" height="38.000000" fill="#2C2C2C" fill-opacity="1.000000"/>
	<path id="Background" d="M22.7588 23.5L26.4883 23.5C28.4482 23.5 29.4912 22.4775 29.4912 21.0889C29.4912 19.7969 28.5654 19.0176 27.5752 18.9707L27.5752 18.8857C28.4805 18.6807 29.1514 18.0361 29.1514 17.0107C29.1514 15.7012 28.1787 14.7725 26.2539 14.7725L22.7588 14.7725L22.7588 23.5ZM24.6045 21.9912L24.6045 19.6738L26.1514 19.6738C27.0361 19.6738 27.5869 20.1836 27.5869 20.9043C27.5869 21.5605 27.1387 21.9912 26.1074 21.9912L24.6045 21.9912ZM24.6045 18.4258L24.6045 16.2637L26.0049 16.2637C26.8252 16.2637 27.2881 16.6855 27.2881 17.3154C27.2881 18.0068 26.7256 18.4258 25.9727 18.4258L24.6045 18.4258ZM32.5202 23.623C33.49 23.623 34.114 23.2012 34.4333 22.5918L34.4861 22.5918L34.4861 23.5L36.2087 23.5L36.2087 19.085C36.2087 17.5264 34.8874 16.8701 33.4284 16.8701C31.8611 16.8701 30.8298 17.6201 30.5779 18.8125L32.2566 18.9502C32.3796 18.5137 32.7693 18.1943 33.4197 18.1943C34.0378 18.1943 34.3923 18.5049 34.3923 19.0439L34.3923 19.0674C34.3923 19.4893 33.9441 19.5449 32.8074 19.6562C31.5124 19.7764 30.3493 20.21 30.3493 21.6719C30.3493 22.9668 31.2722 23.623 32.5202 23.623ZM33.0417 22.3721C32.4822 22.3721 32.0837 22.1113 32.0837 21.6133C32.0837 21.1006 32.5056 20.8486 33.1443 20.7607C33.5398 20.7051 34.1872 20.6113 34.404 20.4648L34.404 21.1592C34.404 21.8477 33.8386 22.3721 33.0417 22.3721ZM40.5761 23.6289C42.3192 23.6289 43.412 22.6064 43.4999 21.1006L41.786 21.1006C41.6776 21.8008 41.2177 22.1904 40.5966 22.1904C39.7499 22.1904 39.1991 21.4814 39.1991 20.2275C39.1991 18.9912 39.7528 18.2852 40.5966 18.2852C41.2616 18.2852 41.6864 18.7217 41.786 19.375L43.4999 19.375C43.4208 17.8633 42.2753 16.8701 40.5673 16.8701C38.581 16.8701 37.3534 18.2471 37.3534 20.2539C37.3534 22.2432 38.5605 23.6289 40.5761 23.6289ZM44.6654 23.5L46.4818 23.5L46.4818 21.4199L46.9711 20.8633L48.7582 23.5L50.8822 23.5L48.3304 19.7881L50.7591 16.9551L48.6761 16.9551L46.5785 19.4395L46.4818 19.4395L46.4818 14.7725L44.6654 14.7725L44.6654 23.5ZM54.323 26.0898C56.1921 26.0898 57.5222 25.2373 57.5222 23.5645L57.5222 16.9551L55.7204 16.9551L55.7204 18.0537L55.6531 18.0537C55.4099 17.5205 54.8767 16.8701 53.781 16.8701C52.3454 16.8701 51.1296 17.9863 51.1296 20.2158C51.1296 22.3926 52.3103 23.4062 53.7868 23.4062C54.8298 23.4062 55.4128 22.8818 55.6531 22.3398L55.7292 22.3398L55.7292 23.5381C55.7292 24.4375 55.1521 24.7861 54.364 24.7861C53.5642 24.7861 53.1599 24.4375 53.0105 24.042L51.3318 24.2676C51.5486 25.2988 52.5593 26.0898 54.323 26.0898ZM54.3611 22.0439C53.4704 22.0439 52.9841 21.335 52.9841 20.207C52.9841 19.0938 53.4616 18.3145 54.3611 18.3145C55.2429 18.3145 55.738 19.0586 55.738 20.207C55.738 21.3613 55.2341 22.0439 54.3611 22.0439ZM58.9708 23.5L60.7872 23.5L60.7872 19.7969C60.7872 18.9912 61.3761 18.4375 62.1759 18.4375C62.4278 18.4375 62.7735 18.4814 62.9435 18.5342L62.9435 16.9258C62.7823 16.8877 62.5567 16.8613 62.3722 16.8613C61.6397 16.8613 61.0392 17.2861 60.7989 18.0977L60.7315 18.0977L60.7315 16.9551L58.9708 16.9551L58.9708 23.5ZM66.5278 23.6289C68.5141 23.6289 69.7475 22.2695 69.7475 20.2539C69.7475 18.2236 68.5141 16.8701 66.5278 16.8701C64.5415 16.8701 63.3051 18.2236 63.3051 20.2539C63.3051 22.2695 64.5415 23.6289 66.5278 23.6289ZM66.5366 22.2227C65.6196 22.2227 65.1508 21.3818 65.1508 20.2393C65.1508 19.0967 65.6196 18.2529 66.5366 18.2529C67.436 18.2529 67.9047 19.0967 67.9047 20.2393C67.9047 21.3818 67.436 22.2227 66.5366 22.2227ZM75.1307 20.7139C75.1336 21.5898 74.533 22.0498 73.8826 22.0498C73.1971 22.0498 72.7518 21.5693 72.7488 20.7988L72.7488 16.9551L70.9324 16.9551L70.9324 21.1211C70.9383 22.6533 71.8319 23.585 73.1502 23.585C74.1346 23.585 74.8406 23.0781 75.1336 22.3105L75.2039 22.3105L75.2039 23.5L76.9471 23.5L76.9471 16.9551L75.1307 16.9551L75.1307 20.7139ZM80.2105 19.7148C80.2134 18.8711 80.7173 18.3789 81.4498 18.3789C82.1792 18.3789 82.6187 18.8564 82.6128 19.6562L82.6128 23.5L84.4292 23.5L84.4292 19.3311C84.4292 17.8076 83.5328 16.8701 82.1705 16.8701C81.1978 16.8701 80.4947 17.3477 80.2017 18.1094L80.1255 18.1094L80.1255 16.9551L78.3941 16.9551L78.3941 23.5L80.2105 23.5L80.2105 19.7148ZM88.2698 23.6055C89.3245 23.6055 89.8753 22.9961 90.1272 22.4512L90.2034 22.4512L90.2034 23.5L91.9934 23.5L91.9934 14.7725L90.1829 14.7725L90.1829 18.0537L90.1272 18.0537C89.8841 17.5205 89.3596 16.8701 88.2639 16.8701C86.8284 16.8701 85.6126 17.9863 85.6126 20.2363C85.6126 22.4248 86.7757 23.6055 88.2698 23.6055ZM88.844 22.1611C87.9534 22.1611 87.4671 21.3701 87.4671 20.2275C87.4671 19.0938 87.9446 18.3145 88.844 18.3145C89.7259 18.3145 90.221 19.0586 90.221 20.2275C90.221 21.3936 89.7171 22.1611 88.844 22.1611Z" fill="#FFFFFF" fill-opacity="1.000000" fill-rule="evenodd"/>
	<path id="Hex" d="M19.0576 342L20.1123 342L20.1123 338.098L24.7676 338.098L24.7676 342L25.8252 342L25.8252 333.272L24.7676 333.272L24.7676 337.16L20.1123 337.16L20.1123 333.272L19.0576 333.272L19.0576 342ZM30.5457 342.138C31.8758 342.138 32.8455 341.473 33.1531 340.482L32.1805 340.21C31.9256 340.893 31.3338 341.232 30.5457 341.232C29.3651 341.232 28.5506 340.471 28.5037 339.067L33.2557 339.067L33.2557 338.643C33.2557 336.205 31.8055 335.37 30.4432 335.37C28.6707 335.37 27.493 336.768 27.493 338.777C27.493 340.79 28.6531 342.138 30.5457 342.138ZM28.5037 338.2C28.5711 337.181 29.2918 336.272 30.4432 336.272C31.533 336.272 32.2332 337.09 32.2332 338.2L28.5037 338.2ZM35.3688 335.455L34.2116 335.455L36.2887 338.728L34.2116 342L35.3688 342L36.9362 339.46L38.5065 342L39.6637 342L37.5514 338.728L39.6637 335.455L38.5065 335.455L36.9362 338.13L35.3688 335.455Z" fill="#FFFFFF" fill-opacity="1.000000" fill-rule="evenodd"/>
	<path id="FFFFFF" d="M76.0576 342L77.1123 342L77.1123 338.098L80.8975 338.098L80.8975 337.16L77.1123 337.16L77.1123 334.21L81.29 334.21L81.29 333.272L76.0576 333.272L76.0576 342ZM83.0974 342L84.1521 342L84.1521 338.098L87.9372 338.098L87.9372 337.16L84.1521 337.16L84.1521 334.21L88.3298 334.21L88.3298 333.272L83.0974 333.272L83.0974 342ZM90.1372 342L91.1918 342L91.1918 338.098L94.977 338.098L94.977 337.16L91.1918 337.16L91.1918 334.21L95.3696 334.21L95.3696 333.272L90.1372 333.272L90.1372 342ZM97.1769 342L98.2316 342L98.2316 338.098L102.017 338.098L102.017 337.16L98.2316 337.16L98.2316 334.21L102.409 334.21L102.409 333.272L97.1769 333.272L97.1769 342ZM104.217 342L105.271 342L105.271 338.098L109.057 338.098L109.057 337.16L105.271 337.16L105.271 334.21L109.449 334.21L109.449 333.272L104.217 333.272L104.217 342ZM111.256 342L112.311 342L112.311 338.098L116.096 338.098L116.096 337.16L112.311 337.16L112.311 334.21L116.489 334.21L116.489 333.272L111.256 333.272L111.256 342Z" fill="#FFFFFF" fill-opacity="1.000000" fill-rule="evenodd"/>
	<path id="100%" d="M204.973 333.272L203.915 333.272L201.732 334.723L201.732 335.795L203.862 334.38L203.915 334.38L203.915 342L204.973 342L204.973 333.272ZM210.324 342.12C212.249 342.12 213.359 340.488 213.359 337.638C213.359 334.808 212.234 333.152 210.324 333.152C208.414 333.152 207.289 334.808 207.289 337.638C207.289 340.488 208.399 342.12 210.324 342.12ZM210.324 341.183C209.055 341.183 208.311 339.908 208.311 337.638C208.311 335.37 209.061 334.075 210.324 334.075C211.587 334.075 212.337 335.37 212.337 337.638C212.337 339.908 211.592 341.183 210.324 341.183ZM217.824 342.12C219.749 342.12 220.859 340.488 220.859 337.638C220.859 334.808 219.734 333.152 217.824 333.152C215.914 333.152 214.789 334.808 214.789 337.638C214.789 340.488 215.899 342.12 217.824 342.12ZM217.824 341.183C216.555 341.183 215.811 339.908 215.811 337.638C215.811 335.37 216.561 334.075 217.824 334.075C219.087 334.075 219.837 335.37 219.837 337.638C219.837 339.908 219.092 341.183 217.824 341.183ZM226.926 340.362C226.926 341.317 227.524 342.12 228.631 342.12C229.721 342.12 230.319 341.317 230.319 340.362L230.319 339.902C230.319 338.95 229.739 338.147 228.631 338.147C227.539 338.147 226.926 338.95 226.926 339.902L226.926 340.362ZM222.579 335.37C222.579 336.325 223.176 337.125 224.284 337.125C225.374 337.125 225.971 336.325 225.971 335.37L225.971 334.91C225.971 333.955 225.391 333.152 224.284 333.152C223.194 333.152 222.579 333.955 222.579 334.91L222.579 335.37ZM222.904 342L223.874 342L229.874 333.272L228.904 333.272L222.904 342ZM227.797 339.902C227.797 339.375 228.034 338.88 228.631 338.88C229.244 338.88 229.449 339.375 229.449 339.902L229.449 340.362C229.449 340.893 229.226 341.388 228.631 341.388C228.016 341.388 227.797 340.893 227.797 340.362L227.797 339.902ZM223.449 334.91C223.449 334.38 223.686 333.888 224.284 333.888C224.899 333.888 225.101 334.38 225.101 334.91L225.101 335.37C225.101 335.897 224.881 336.393 224.284 336.393C223.672 336.393 223.449 335.897 223.449 335.37L223.449 334.91Z" fill="#FFFFFF" fill-opacity="1.000000" fill-rule="evenodd"/>
	<rect id="x" width="24.000000" height="24.000000" transform="translate(215.000000 7.000000)" fill="#FFFFFF" fill-opacity="0"/>
	<g clip-path="url(#clip1_1803)">
		<path id="Vector" d="M233.354 13.3535C233.549 13.1582 233.549 12.8418 233.354 12.6465C233.158 12.4512 232.842 12.4512 232.646 12.6465L227 18.293L221.354 12.6465C221.158 12.4512 220.842 12.4512 220.646 12.6465C220.451 12.8418 220.451 13.1582 220.646 13.3535L226.293 19L220.646 24.6465C220.451 24.8418 220.451 25.1582 220.646 25.3535C220.842 25.5488 221.158 25.5488 221.354 25.3535L227 19.707L232.646 25.3535C232.842 25.5488 233.158 25.5488 233.354 25.3535C233.549 25.1582 233.549 24.8418 233.354 24.6465L227.707 19L233.354 13.3535Z" fill="#FFFFFF" fill-opacity="1.000000" fill-rule="evenodd"/>
	</g>
	<path id="Line 38" d="M55 306L228 306" stroke="url(#paint_linear_1_1805_0)" stroke-opacity="1.000000" stroke-width="12.000000" stroke-linecap="round"/>
	<circle id="Ellipse 28" cx="215.000000" cy="306.000000" r="8.000000" fill="#E92AA8" fill-opacity="1.000000"/>
	<circle id="Ellipse 28" cx="215.000000" cy="306.000000" r="7.000000" stroke="#FFFFFF" stroke-opacity="1.000000" stroke-width="2.000000"/>
	<rect id="edit-2" width="17.000000" height="17.000000" transform="translate(18.000000 298.000000)" fill="#FFFFFF" fill-opacity="0"/>
	<g clip-path="url(#clip1_1807)">
		<path id="Vector" d="M30.042 300.124C30.228 299.938 30.4487 299.79 30.6919 299.689C30.9348 299.589 31.1956 299.537 31.4585 299.537C31.7217 299.537 31.9822 299.589 32.2253 299.689C32.4683 299.79 32.6892 299.938 32.8752 300.124C33.0613 300.31 33.2087 300.531 33.3096 300.773C33.4102 301.017 33.4619 301.277 33.4619 301.541C33.4619 301.804 33.4102 302.064 33.3096 302.308C33.2087 302.551 33.0613 302.771 32.8752 302.957L29.2415 306.148L28.179 305.086L26.4082 303.669L30.042 300.124Z" fill="#FFFFFF" fill-opacity="1.000000" fill-rule="nonzero"/>
		<path id="Vector" d="M30.6909 299.691C30.9341 299.591 31.1946 299.539 31.4578 299.539C31.7207 299.539 31.9812 299.591 32.2244 299.691C32.4675 299.792 32.6882 299.939 32.8743 300.126C33.0603 300.312 33.208 300.533 33.3086 300.775C33.4094 301.019 33.4612 301.279 33.4612 301.543C33.4612 301.806 33.4094 302.066 33.3086 302.31C33.208 302.553 33.0603 302.773 32.8743 302.959L23.3118 312.521L22.7927 312.663C21.2998 313.07 19.9297 311.7 20.3369 310.208L20.4785 309.688L30.041 300.126C30.2271 299.939 30.448 299.792 30.6909 299.691Z" stroke="#FFFFFF" stroke-opacity="1.000000" stroke-width="1.500000" stroke-linejoin="round"/>
		<path id="Line 39" d="M24.6367 301.191L31.2192 308.067" stroke="#FFFFFF" stroke-opacity="1.000000" stroke-width="1.500000" stroke-linecap="round"/>
	</g>
	<rect id="chevron-down" width="14.000000" height="14.000000" transform="translate(43.000000 332.000000)" fill="#FFFFFF" fill-opacity="0"/>
	<g clip-path="url(#clip1_1811)">
		<path id="Vector" d="M46.5 337.25L50 340.75L53.5 337.25" stroke="#5B5B5B" stroke-opacity="1.000000" stroke-width="1.000000" stroke-linejoin="round" stroke-linecap="round"/>
	</g>
	<circle id="Ellipse 28" cx="6.500000" cy="38.500000" r="6.500000" fill="#FFFFFF" fill-opacity="1.000000"/>
	<circle id="Ellipse 28" cx="6.500000" cy="38.500000" r="6.000000" stroke="#D6D6D6" stroke-opacity="1.000000" stroke-width="1.000000"/>
</svg>
