<svg width="81.000000" height="38.000000" viewBox="0 0 81 38" fill="none" xmlns="http://www.w3.org/2000/svg" xmlns:xlink="http://www.w3.org/1999/xlink">
	<desc>
			Created with Pixso.
	</desc>
	<defs/>
	<path id="Polygon 1" d="M2.79785 0.421875L19.3521 7.1582C21.02 7.83691 21.0117 10.2012 19.3394 10.8682L13.7129 13.1123C13.1851 13.3223 12.7715 13.748 12.5762 14.2812L10.7764 19.1885C10.1514 20.8926 7.7627 20.9502 7.05615 19.2783L0.20166 3.05273C-0.492188 1.41016 1.14648 -0.25 2.79785 0.421875Z" fill="#DE37D1" fill-opacity="1.000000" fill-rule="nonzero"/>
	<rect id="Frame 29" rx="10.000000" width="61.000000" height="20.000000" transform="translate(20.000000 18.000000)" fill="#DE37D1" fill-opacity="1.000000"/>
	<path id="Ментор" d="M39.2969 32L37.416 26.9922L37.3848 26.9922Q37.4082 27.2402 37.4238 27.6602Q37.4395 28.0801 37.4395 28.5352L37.4395 32L36.7754 32L36.7754 26.2871L37.8398 26.2871L39.5996 30.9688L39.6328 30.9688L41.4238 26.2871L42.4805 26.2871L42.4805 32L41.7676 32L41.7676 28.4883Q41.7676 28.0723 41.7871 27.6641Q41.8086 27.2559 41.8242 27L41.791 27L39.8887 32L39.2969 32ZM45.5919 27.6328Q46.1447 27.6328 46.5392 27.873Q46.9357 28.1113 47.1466 28.5488Q47.3595 28.9844 47.3595 29.5684L47.3595 29.9922L44.424 29.9922Q44.4396 30.7207 44.7951 31.1016Q45.1525 31.4805 45.7912 31.4805Q46.1994 31.4805 46.5158 31.4043Q46.8322 31.3281 47.1681 31.1836L47.1681 31.8008Q46.84 31.9434 46.5197 32.0117Q46.1994 32.0801 45.7599 32.0801Q45.1525 32.0801 44.6837 31.832Q44.2169 31.584 43.9552 31.0918Q43.6955 30.5996 43.6955 29.8887Q43.6955 29.1836 43.9318 28.6797Q44.1681 28.1758 44.5958 27.9043Q45.0236 27.6328 45.5919 27.6328ZM45.5841 28.207Q45.0802 28.207 44.7873 28.5312Q44.4962 28.8555 44.4396 29.4316L46.6232 29.4316Q46.6154 28.8887 46.3673 28.5488Q46.1193 28.207 45.5841 28.207ZM49.1528 27.7129L49.1528 29.4961L51.4809 29.4961L51.4809 27.7129L52.184 27.7129L52.184 32L51.4809 32L51.4809 30.0879L49.1528 30.0879L49.1528 32L48.4477 32L48.4477 27.7129L49.1528 27.7129ZM56.5046 28.3047L55.1042 28.3047L55.1042 32L54.4089 32L54.4089 28.3047L53.0242 28.3047L53.0242 27.7129L56.5046 27.7129L56.5046 28.3047ZM61.0002 29.8477Q61.0002 30.9121 60.4592 31.4961Q59.9201 32.0801 59.0002 32.0801Q58.4318 32.0801 57.9865 31.8203Q57.5432 31.5605 57.2873 31.0605Q57.0315 30.5605 57.0315 29.8477Q57.0315 28.7832 57.5666 28.209Q58.1037 27.6328 59.0236 27.6328Q59.6076 27.6328 60.051 27.8926Q60.4963 28.1523 60.7483 28.6445Q61.0002 29.1367 61.0002 29.8477ZM57.76 29.8477Q57.76 30.6074 58.0588 31.0527Q58.3596 31.4961 59.0158 31.4961Q59.6643 31.4961 59.967 31.0527Q60.2717 30.6074 60.2717 29.8477Q60.2717 29.0879 59.967 28.6562Q59.6643 28.2246 59.008 28.2246Q58.3518 28.2246 58.0549 28.6562Q57.76 29.0879 57.76 29.8477ZM64.1527 27.6328Q64.9437 27.6328 65.4281 28.1855Q65.9125 28.7363 65.9125 29.8477Q65.9125 30.9434 65.4281 31.5117Q64.9437 32.0801 64.1449 32.0801Q63.6488 32.0801 63.3246 31.8926Q63.0004 31.7031 62.8168 31.4551L62.7679 31.4551Q62.7836 31.5918 62.7992 31.8008Q62.8168 32.0078 62.8168 32.1602L62.8168 33.9199L62.1117 33.9199L62.1117 27.7129L62.6879 27.7129L62.7836 28.2969L62.8168 28.2969Q63.0082 28.0156 63.3187 27.8242Q63.6312 27.6328 64.1527 27.6328ZM64.0238 28.2246Q63.3675 28.2246 63.1 28.5938Q62.8324 28.9609 62.8168 29.7129L62.8168 29.8477Q62.8168 30.6406 63.0765 31.0684Q63.3363 31.4961 64.0394 31.4961Q64.432 31.4961 64.684 31.2812Q64.9359 31.0645 65.059 30.6934Q65.184 30.3203 65.184 29.8398Q65.184 29.1035 64.8988 28.6641Q64.6156 28.2246 64.0238 28.2246Z" fill="#FFFFFF" fill-opacity="1.000000" fill-rule="evenodd"/>
</svg>
