<svg aria-hidden="true" style="position: absolute; width: 0; height: 0; overflow: hidden;" version="1.1" xmlns="http://www.w3.org/2000/svg" xmlns:xlink="http://www.w3.org/1999/xlink">
<defs>
<symbol id="after-effects-logo" viewBox="0 0 32 32">
<path fill="#00005b" style="fill: var(--color1, #00005b)" d="M5.667 0h20.667c0.744-0.001 1.481 0.149 2.169 0.441s1.313 0.72 1.839 1.26 0.944 1.181 1.229 1.886c0.284 0.706 0.43 1.461 0.43 2.225v20.376c0.001 0.764-0.145 1.52-0.43 2.225s-0.702 1.346-1.229 1.886c-0.526 0.54-1.151 0.968-1.839 1.26s-1.425 0.441-2.169 0.441h-20.667c-0.744 0.001-1.481-0.149-2.169-0.441s-1.313-0.72-1.839-1.26c-0.526-0.54-0.944-1.181-1.228-1.886s-0.43-1.461-0.43-2.225v-20.376c-0.001-0.764 0.145-1.52 0.43-2.225s0.702-1.346 1.228-1.886 1.151-0.968 1.839-1.26c0.688-0.292 1.425-0.441 2.169-0.441z"></path>
<path fill="#99f" style="fill: var(--color2, #99f)" d="M12.854 19.145h-4.96l-1.013 3.228c-0.011 0.059-0.044 0.111-0.091 0.146s-0.104 0.052-0.163 0.045h-2.507c-0.147 0-0.187-0.082-0.147-0.246l4.293-12.622c0.040-0.137 0.080-0.26 0.133-0.424 0.054-0.293 0.080-0.591 0.080-0.889-0.004-0.034 0.004-0.069 0.024-0.097s0.049-0.047 0.082-0.054h3.453c0.094 0 0.16 0.041 0.173 0.109l4.867 14.017c0.040 0.15 0 0.219-0.133 0.219h-2.787c-0.047 0.005-0.094-0.008-0.133-0.035s-0.067-0.068-0.080-0.115l-1.093-3.282zM8.667 16.424h3.387c-0.080-0.287-0.187-0.629-0.307-0.984s-0.24-0.766-0.36-1.176c-0.12-0.41-0.253-0.834-0.386-1.258s-0.253-0.82-0.36-1.217c-0.106-0.396-0.2-0.739-0.293-1.067h-0.027c-0.12 0.596-0.271 1.185-0.454 1.764-0.2 0.656-0.4 1.34-0.613 2.024-0.173 0.697-0.387 1.34-0.586 1.914z"></path>
<path fill="#99f" style="fill: var(--color2, #99f)" d="M24.986 17.887h-4.227c0.051 0.432 0.191 0.847 0.414 1.217 0.235 0.368 0.575 0.655 0.973 0.82 0.539 0.236 1.121 0.353 1.706 0.342 0.466-0.009 0.93-0.059 1.387-0.15 0.407-0.055 0.805-0.16 1.187-0.314 0.066-0.055 0.106-0.027 0.106 0.109v2.092c-0.002 0.056-0.011 0.111-0.027 0.164-0.024 0.039-0.056 0.071-0.093 0.096-0.426 0.192-0.874 0.33-1.333 0.41-0.624 0.123-1.258 0.178-1.894 0.164-1.013 0-1.867-0.164-2.56-0.479-0.652-0.291-1.228-0.736-1.68-1.299-0.422-0.527-0.735-1.137-0.92-1.791-0.391-1.364-0.372-2.818 0.054-4.171 0.212-0.685 0.552-1.321 1-1.874 0.441-0.547 0.991-0.99 1.613-1.299 0.626-0.314 1.373-0.424 2.227-0.424 0.711-0.017 1.416 0.128 2.066 0.424 0.546 0.243 1.027 0.618 1.4 1.094 0.355 0.467 0.625 0.995 0.8 1.559 0.169 0.539 0.255 1.102 0.253 1.669 0 0.328-0.013 0.615-0.027 0.875s-0.040 0.451-0.053 0.574c-0.006 0.047-0.028 0.091-0.062 0.123s-0.078 0.052-0.125 0.054c-0.080 0-0.227 0.014-0.44 0.027-0.257 0.030-0.515 0.043-0.773 0.041-0.307 0-0.627-0.055-0.974-0.055zM20.759 15.891h2.814c0.347 0 0.6 0 0.76-0.014 0.11-0.009 0.215-0.047 0.307-0.109v-0.137c0-0.172-0.027-0.343-0.080-0.506-0.117-0.374-0.349-0.7-0.662-0.926s-0.689-0.344-1.072-0.332c-0.362-0.021-0.722 0.066-1.037 0.251s-0.571 0.459-0.737 0.789c-0.156 0.307-0.255 0.641-0.293 0.985z"></path>
</symbol>
<symbol id="discord-icon" viewBox="0 0 42 32">
<path fill="#fff" style="fill: var(--color3, #fff)" d="M35.692 2.659c-2.672-1.239-5.565-2.139-8.578-2.659-0.026-0.001-0.052 0.004-0.077 0.014s-0.046 0.026-0.064 0.046c-0.361 0.66-0.783 1.519-1.064 2.179-3.196-0.479-6.446-0.479-9.642 0-0.281-0.68-0.703-1.519-1.085-2.179-0.020-0.040-0.080-0.060-0.141-0.060-3.013 0.52-5.885 1.42-8.577 2.659-0.020 0-0.040 0.021-0.061 0.041-5.463 8.138-6.97 16.055-6.226 23.893 0 0.040 0.020 0.080 0.060 0.1 3.616 2.639 7.091 4.239 10.526 5.298 0.061 0.020 0.121 0 0.141-0.040 0.804-1.099 1.527-2.259 2.149-3.479 0.041-0.080 0-0.16-0.080-0.18-1.145-0.44-2.23-0.96-3.294-1.56-0.081-0.040-0.081-0.16-0.021-0.22 0.222-0.16 0.442-0.34 0.663-0.5 0.040-0.041 0.101-0.041 0.141-0.020 6.911 3.139 14.362 3.139 21.192 0 0.040-0.021 0.101-0.021 0.141 0.020 0.222 0.18 0.442 0.34 0.663 0.52 0.079 0.060 0.079 0.18-0.020 0.22-1.046 0.62-2.149 1.12-3.295 1.56-0.080 0.020-0.099 0.12-0.080 0.18 0.642 1.219 1.366 2.379 2.149 3.479 0.060 0.020 0.121 0.040 0.18 0.020 3.456-1.060 6.93-2.659 10.547-5.298 0.040-0.020 0.060-0.060 0.060-0.1 0.883-9.057-1.466-16.915-6.227-23.893-0.020-0.020-0.040-0.041-0.080-0.041zM14.098 21.815c-2.070 0-3.797-1.9-3.797-4.239s1.688-4.239 3.797-4.239c2.129 0 3.815 1.92 3.796 4.239 0 2.34-1.688 4.239-3.796 4.239zM28.098 21.815c-2.068 0-3.797-1.9-3.797-4.239s1.688-4.239 3.797-4.239c2.129 0 3.817 1.92 3.797 4.239 0 2.34-1.668 4.239-3.797 4.239z"></path>
</symbol>
<symbol id="face-icon" viewBox="0 0 32 32">
<path fill="#fff" style="fill: var(--color3, #fff)" d="M32.347 16.040c0-8.854-7.245-16.040-16.173-16.040s-16.174 7.186-16.174 16.040c0 7.764 5.563 14.228 12.939 15.72v-10.907h-3.235v-4.812h3.235v-4.010c0-3.096 2.539-5.614 5.661-5.614h4.043v4.812h-3.235c-0.89 0-1.618 0.722-1.618 1.604v3.208h4.852v4.812h-4.852v11.148c8.168-0.802 14.556-7.635 14.556-15.96z"></path>
</symbol>
<symbol id="illustrator-logo" viewBox="0 0 32 32">
<path fill="#300" style="fill: var(--color4, #300)" d="M5.667 0h20.667c0.744-0.001 1.481 0.149 2.169 0.441s1.313 0.72 1.839 1.26 0.944 1.181 1.229 1.886c0.284 0.706 0.43 1.461 0.43 2.225v20.376c0.001 0.764-0.145 1.52-0.43 2.225s-0.702 1.346-1.229 1.886c-0.526 0.54-1.151 0.968-1.839 1.26s-1.425 0.441-2.169 0.441h-20.667c-0.744 0.001-1.481-0.149-2.169-0.441s-1.313-0.72-1.839-1.26c-0.526-0.54-0.944-1.181-1.228-1.886s-0.43-1.461-0.43-2.225v-20.376c-0.001-0.764 0.145-1.52 0.43-2.225s0.702-1.346 1.228-1.886 1.151-0.968 1.839-1.26c0.688-0.292 1.425-0.441 2.169-0.441z"></path>
<path fill="#ff9a00" style="fill: var(--color5, #ff9a00)" d="M15.506 19.2h-4.96l-1.013 3.213c-0.011 0.059-0.044 0.111-0.091 0.146s-0.104 0.052-0.163 0.045h-2.507c-0.146 0-0.187-0.082-0.146-0.246l4.293-12.677c0.040-0.137 0.080-0.287 0.133-0.451 0.054-0.293 0.080-0.591 0.080-0.889-0.004-0.034 0.004-0.069 0.024-0.097s0.049-0.047 0.082-0.054h3.453c0.107 0 0.16 0.041 0.173 0.109l4.867 14.085c0.040 0.15 0 0.219-0.133 0.219h-2.787c-0.047 0.005-0.094-0.008-0.133-0.035s-0.067-0.068-0.080-0.115l-1.093-3.254zM11.319 16.424h3.387c-0.080-0.287-0.187-0.629-0.307-0.984s-0.24-0.766-0.36-1.176c-0.12-0.41-0.253-0.834-0.386-1.258s-0.253-0.82-0.36-1.217c-0.107-0.396-0.2-0.739-0.293-1.067h-0.027c-0.12 0.596-0.271 1.185-0.454 1.764-0.2 0.656-0.4 1.34-0.613 2.024-0.187 0.698-0.387 1.34-0.586 1.914z"></path>
<path fill="#ff9a00" style="fill: var(--color5, #ff9a00)" d="M22.639 10.53c-0.219 0.005-0.437-0.035-0.64-0.117s-0.39-0.205-0.547-0.361c-0.305-0.343-0.468-0.794-0.453-1.258-0.008-0.226 0.031-0.451 0.114-0.661s0.207-0.399 0.366-0.556c0.32-0.311 0.746-0.482 1.186-0.479 0.52 0 0.92 0.164 1.213 0.479 0.295 0.332 0.453 0.769 0.44 1.217 0.008 0.231-0.029 0.461-0.109 0.678s-0.202 0.413-0.358 0.581c-0.157 0.164-0.347 0.291-0.556 0.374s-0.434 0.118-0.657 0.104zM21.145 22.4v-10.53c0-0.137 0.054-0.191 0.173-0.191h2.64c0.12 0 0.173 0.068 0.173 0.191v10.53c0 0.15-0.053 0.219-0.173 0.219h-2.613c-0.028 0.003-0.056-0.002-0.082-0.012s-0.050-0.027-0.069-0.048c-0.020-0.021-0.034-0.046-0.042-0.074s-0.011-0.057-0.007-0.085z"></path>
</symbol>
<symbol id="insta-icon" viewBox="0 0 32 32">
<path fill="#fff" style="fill: var(--color3, #fff)" d="M22.183 0h-12.1c-5.568 0-10.083 4.478-10.083 10v12c0 5.522 4.515 10 10.083 10h12.1c5.568 0 10.083-4.478 10.083-10v-12c0-5.522-4.515-10-10.083-10zM29.241 22c0 3.86-3.166 7-7.058 7h-12.1c-3.892 0-7.058-3.14-7.058-7v-12c0-3.86 3.166-7 7.058-7h12.1c3.892 0 7.058 3.14 7.058 7v12zM25.88 7.4c0 0.589-0.482 1.066-1.075 1.066s-1.075-0.477-1.075-1.066c0-0.588 0.481-1.066 1.075-1.066s1.075 0.478 1.075 1.066zM16.133 8c-4.455 0-8.066 3.582-8.066 8s3.611 8 8.066 8c4.455 0 8.067-3.582 8.067-8s-3.612-8-8.066-8zM16.133 21c-2.779 0-5.042-2.244-5.042-5 0-2.758 2.263-5 5.042-5s5.042 2.242 5.042 5c0 2.756-2.263 5-5.042 5z"></path>
</symbol>
<symbol id="lightroom-logo" viewBox="0 0 32 32">
<path fill="#001e36" style="fill: var(--color6, #001e36)" d="M5.667 0h20.667c0.744-0.001 1.481 0.149 2.169 0.441s1.313 0.72 1.839 1.26 0.944 1.181 1.229 1.886c0.284 0.706 0.43 1.461 0.43 2.225v20.376c0.001 0.764-0.145 1.52-0.43 2.225s-0.702 1.346-1.229 1.886c-0.526 0.54-1.151 0.968-1.839 1.26s-1.425 0.441-2.169 0.441h-20.667c-0.744 0.001-1.481-0.149-2.169-0.441s-1.313-0.72-1.839-1.26c-0.526-0.54-0.944-1.181-1.228-1.886s-0.43-1.461-0.43-2.225v-20.376c-0.001-0.764 0.145-1.52 0.43-2.225s0.702-1.346 1.228-1.886 1.151-0.968 1.839-1.26c0.688-0.292 1.425-0.441 2.169-0.441z"></path>
<path fill="#31a8ff" style="fill: var(--color7, #31a8ff)" d="M16.799 22.619h-8.453c-0.146 0-0.213-0.082-0.213-0.246v-13.976c-0.003-0.022-0.001-0.045 0.004-0.067s0.016-0.042 0.029-0.061c0.014-0.018 0.031-0.033 0.050-0.043s0.041-0.018 0.063-0.021h2.667c0.017-0.003 0.034-0.002 0.050 0.001s0.032 0.011 0.046 0.021c0.014 0.010 0.025 0.023 0.034 0.038s0.015 0.032 0.017 0.049v11.528h6.16c0.133 0 0.173 0.068 0.146 0.191l-0.387 2.379c-0.002 0.032-0.010 0.063-0.024 0.090s-0.033 0.053-0.056 0.074c-0.039 0.028-0.085 0.043-0.133 0.041z"></path>
<path fill="#31a8ff" style="fill: var(--color7, #31a8ff)" d="M18.933 11.678h2.334c0.064 0.002 0.125 0.024 0.175 0.063s0.087 0.094 0.105 0.156c0.055 0.097 0.091 0.204 0.106 0.315 0.027 0.137 0.053 0.287 0.067 0.424s0.026 0.315 0.026 0.492c0.4-0.479 0.884-0.878 1.427-1.176 0.609-0.338 1.294-0.508 1.987-0.492 0.022-0.003 0.044-0.002 0.065 0.004s0.041 0.016 0.059 0.030c0.018 0.014 0.032 0.032 0.043 0.051s0.017 0.042 0.020 0.065v2.722c0 0.109-0.067 0.15-0.213 0.15-0.864-0.053-1.728 0.106-2.52 0.465-0.27 0.119-0.515 0.29-0.72 0.506v6.975c0 0.137-0.054 0.192-0.173 0.192h-2.6c-0.025 0.004-0.050 0.003-0.074-0.003s-0.047-0.017-0.067-0.032c-0.020-0.016-0.037-0.035-0.049-0.057s-0.020-0.046-0.023-0.072v-7.631c0-0.328 0-0.67-0.013-1.026s-0.014-0.711-0.027-1.066c-0.013-0.301-0.040-0.602-0.080-0.903-0.003-0.016-0.004-0.033-0.001-0.049s0.009-0.032 0.017-0.046c0.009-0.014 0.020-0.026 0.033-0.036s0.028-0.016 0.044-0.020c0.014-0.014 0.027-0.014 0.053 0z"></path>
</symbol>
<symbol id="link-icon" viewBox="0 0 32 32">
<path fill="#fff" style="fill: var(--color3, #fff)" d="M30.72 0h-29.44c-0.708 0-1.28 0.572-1.28 1.28v29.44c0 0.708 0.573 1.28 1.28 1.28h29.44c0.708 0 1.28-0.572 1.28-1.28v-29.44c0-0.708-0.573-1.28-1.28-1.28zM9.492 27.268h-4.748v-15.272h4.748v15.272zM7.121 9.908c-0.545 0-1.077-0.161-1.529-0.464-0.453-0.302-0.806-0.732-1.014-1.235-0.208-0.503-0.262-1.056-0.156-1.59s0.368-1.024 0.753-1.409c0.385-0.384 0.875-0.647 1.409-0.753 0.535-0.107 1.088-0.052 1.59 0.156 0.503 0.209 0.933 0.561 1.236 1.014s0.463 0.984 0.463 1.529c-0.003 1.52-1.236 2.752-2.751 2.752zM27.268 27.268h-4.743v-7.428c0-1.772-0.032-4.048-2.469-4.048-2.468 0-2.848 1.928-2.848 3.92v7.556h-4.74v-15.272h4.552v2.088h0.064c0.633-1.2 2.181-2.468 4.492-2.468 4.808 0 5.692 3.164 5.692 7.276v8.376z"></path>
</symbol>
<symbol id="logo" viewBox="0 0 126 32">
<path fill="#fec830" style="fill: var(--color8, #fec830)" d="M47.456 6.158c-0.065-0.983 0.681-1.831 1.662-1.889l73.104-4.267c0.964-0.056 1.794 0.674 1.867 1.64l1.773 23.929c0.074 0.986-0.671 1.843-1.654 1.903l-73.279 4.522c-0.971 0.059-1.808-0.679-1.873-1.654l-1.599-24.184z"></path>
<path fill="#000" style="fill: var(--color9, #000)" d="M3.344 30.454c-0.985 0.056-1.827-0.699-1.877-1.687-0.322-6.359-1.156-19.201-1.464-23.899-0.064-0.983 0.681-1.821 1.661-1.879l38.045-2.267c0.583-0.034 1.146 0.223 1.504 0.686l8.999 11.685c0.449 0.582 0.492 1.383 0.109 2.011l-7.522 12.323c-0.303 0.496-0.828 0.811-1.407 0.845l-38.049 2.181z"></path>
<path fill="#fff" style="fill: var(--color3, #fff)" d="M9.722 16.502c-0.065-0.875 0.052-1.753 0.341-2.582 0.274-0.796 0.706-1.529 1.27-2.156 0.581-0.635 1.282-1.151 2.064-1.517 0.836-0.399 1.742-0.632 2.668-0.689 1.064-0.071 2.014 0.022 2.853 0.279 0.857 0.266 1.66 0.68 2.371 1.224l-1.881 2.578c-0.45-0.335-0.949-0.597-1.481-0.778-0.528-0.162-1.083-0.223-1.634-0.177-0.432 0.021-0.854 0.134-1.238 0.331s-0.721 0.474-0.988 0.812c-0.576 0.701-0.832 1.531-0.767 2.491 0.069 1.021 0.447 1.843 1.134 2.463s1.528 0.898 2.524 0.83c0.814-0.055 1.475-0.281 1.984-0.677l-0.107-1.571-2.504 0.168-0.17-2.506 5.799-0.39 0.384 5.653c-1.49 1.383-3.265 2.144-5.326 2.28-1.295 0.087-2.482-0.109-3.562-0.593-1.057-0.462-1.963-1.21-2.614-2.158-0.662-0.956-1.036-2.061-1.121-3.316z"></path>
<path fill="#fff" style="fill: var(--color3, #fff)" d="M25.172 15.484c-0.062-0.87 0.057-1.743 0.351-2.565 0.28-0.799 0.714-1.535 1.278-2.169 0.582-0.641 1.284-1.161 2.067-1.534 1.682-0.802 3.609-0.932 5.385-0.366 0.821 0.262 1.582 0.682 2.24 1.236 0.64 0.551 1.163 1.222 1.54 1.976 0.398 0.782 0.631 1.636 0.686 2.511 0.062 0.87-0.057 1.743-0.349 2.565-0.278 0.799-0.71 1.536-1.274 2.171-0.58 0.64-1.281 1.159-2.062 1.531-0.831 0.403-1.733 0.64-2.655 0.695-1.271 0.085-2.445-0.126-3.522-0.635-1.047-0.484-1.942-1.243-2.59-2.194-0.65-0.957-1.028-2.071-1.094-3.223zM28.748 15.244c0.063 0.926 0.421 1.701 1.074 2.325 0.654 0.623 1.447 0.903 2.378 0.841 0.943-0.063 1.691-0.442 2.244-1.137s0.797-1.516 0.733-2.459c-0.063-0.926-0.421-1.701-1.074-2.325-0.653-0.623-1.453-0.903-2.398-0.841-0.931 0.063-1.673 0.442-2.226 1.138s-0.796 1.516-0.731 2.459z"></path>
<path fill="#fff" style="fill: var(--color3, #fff)" d="M58.421 24.195l-0.852-12.514 3.488-0.233 0.854 12.514-3.491 0.233z"></path>
<path fill="#fff" style="fill: var(--color3, #fff)" d="M63.061 14.372l-0.207-3.046 11.053-0.742 0.207 3.046-3.785 0.253 0.644 9.47-3.488 0.234-0.644-9.471-3.779 0.255z"></path>
<path fill="#fff" style="fill: var(--color3, #fff)" d="M73.88 18.309c-0.050-0.677 0.028-1.357 0.23-2.005 0.186-0.613 0.49-1.182 0.896-1.678 0.409-0.49 0.915-0.891 1.487-1.178 0.607-0.309 1.272-0.49 1.954-0.53 0.814-0.055 1.551 0.037 2.209 0.277 0.62 0.216 1.178 0.58 1.625 1.059 0.431 0.475 0.772 1.024 1.006 1.621 0.252 0.644 0.4 1.324 0.441 2.014 0.021 0.308 0.031 0.542 0.030 0.699l-6.519 0.437c0.171 0.521 0.45 0.906 0.836 1.158s0.848 0.359 1.385 0.323c0.758-0.052 1.455-0.436 2.092-1.152l1.996 1.442c-0.949 1.366-2.317 2.109-4.103 2.229-1.013 0.069-1.929-0.080-2.746-0.447-0.803-0.352-1.487-0.927-1.97-1.656-0.498-0.741-0.781-1.612-0.848-2.613zM77.068 17.29l3.383-0.227c-0.102-0.538-0.313-0.952-0.632-1.246s-0.711-0.425-1.174-0.395c-0.209 0.010-0.413 0.065-0.599 0.159s-0.35 0.228-0.48 0.391c-0.28 0.337-0.445 0.776-0.497 1.318z"></path>
<path fill="#fff" style="fill: var(--color3, #fff)" d="M84.946 17.568c-0.049-0.678 0.029-1.358 0.23-2.007 0.186-0.612 0.49-1.181 0.895-1.677 0.409-0.49 0.915-0.891 1.486-1.178 0.607-0.309 1.273-0.49 1.954-0.53 0.815-0.054 1.55 0.037 2.209 0.277 0.621 0.216 1.179 0.578 1.626 1.057 0.432 0.475 0.773 1.024 1.006 1.621 0.252 0.645 0.4 1.325 0.441 2.016 0.021 0.308 0.031 0.542 0.030 0.7l-6.519 0.437c0.171 0.52 0.449 0.906 0.835 1.158 0.387 0.251 0.849 0.359 1.386 0.324 0.761-0.052 1.459-0.436 2.093-1.154l1.996 1.442c-0.95 1.366-2.317 2.109-4.103 2.229-1.014 0.068-1.929-0.080-2.746-0.447-0.803-0.352-1.488-0.928-1.97-1.656-0.498-0.741-0.781-1.61-0.85-2.612zM88.134 16.547l3.382-0.227c-0.102-0.536-0.312-0.952-0.632-1.246s-0.711-0.425-1.174-0.395c-0.209 0.010-0.413 0.065-0.599 0.16-0.186 0.095-0.35 0.228-0.48 0.391-0.281 0.338-0.446 0.776-0.497 1.317z"></path>
<path fill="#fff" style="fill: var(--color3, #fff)" d="M96.735 21.625l-0.657-9.671 3.418-0.23 0.093 1.37c0.762-1.115 1.697-1.709 2.806-1.783 1.031-0.070 1.862 0.193 2.494 0.789 0.632 0.595 0.985 1.445 1.061 2.55l0.43 6.328-3.418 0.229-0.358-5.224c-0.035-0.517-0.187-0.907-0.456-1.172s-0.612-0.383-1.029-0.355c-0.43 0.029-0.767 0.194-1.011 0.496s-0.35 0.708-0.316 1.22l0.355 5.223-3.412 0.231z"></path>
<path fill="#fff" style="fill: var(--color3, #fff)" d="M107.497 19.643l1.142-2.143c1.173 0.643 2.315 0.927 3.422 0.852 0.573-0.040 0.848-0.236 0.823-0.593-0.011-0.17-0.139-0.302-0.38-0.397s-0.656-0.196-1.238-0.305c-0.442-0.083-0.818-0.166-1.13-0.248-0.329-0.087-0.65-0.202-0.959-0.344-0.29-0.125-0.559-0.295-0.797-0.501-0.218-0.204-0.395-0.447-0.521-0.716-0.149-0.313-0.236-0.651-0.254-0.997-0.069-1.024 0.237-1.846 0.918-2.466s1.602-0.969 2.762-1.047c0.721-0.048 1.444 0.007 2.149 0.164 0.682 0.145 1.339 0.392 1.947 0.73l-1.022 2.233c-0.506-0.226-1.031-0.403-1.571-0.529-0.527-0.121-0.983-0.169-1.369-0.143-0.258 0.018-0.452 0.073-0.58 0.167-0.062 0.041-0.11 0.096-0.141 0.16-0.032 0.066-0.045 0.137-0.038 0.209 0.011 0.171 0.137 0.303 0.375 0.397 0.238 0.094 0.659 0.206 1.263 0.338 0.442 0.090 0.818 0.177 1.13 0.265 0.329 0.095 0.65 0.214 0.96 0.356 0.29 0.124 0.559 0.294 0.797 0.5 0.215 0.201 0.391 0.439 0.521 0.703 0.148 0.302 0.234 0.631 0.251 0.968 0.071 1.056-0.23 1.892-0.906 2.506s-1.623 0.963-2.843 1.044c-1.74 0.117-3.311-0.272-4.713-1.165z"></path>
</symbol>
<symbol id="master-card-icon" viewBox="0 0 47 32">
<path fill="#fff" style="fill: var(--color3, #fff)" d="M4.923 0h36.923c2.719 0 4.923 2.204 4.923 4.923v22.154c0 2.719-2.204 4.923-4.923 4.923h-36.923c-2.719 0-4.923-2.204-4.923-4.923v-22.154c0-2.719 2.204-4.923 4.923-4.923z"></path>
<path fill="#ffb600" style="fill: var(--color10, #ffb600)" d="M36.005 15.611c0 4.154-3.334 7.551-7.5 7.551-4.128 0-7.5-3.396-7.5-7.551s3.333-7.551 7.46-7.551c4.206 0 7.54 3.396 7.54 7.551z"></path>
<path fill="#f7981d" style="fill: var(--color11, #f7981d)" d="M28.505 8.059c4.126 0 7.5 3.396 7.5 7.551s-3.334 7.551-7.5 7.551c-4.128 0-7.5-3.396-7.5-7.551z"></path>
<path fill="#ff8500" style="fill: var(--color12, #ff8500)" d="M28.505 8.059c4.126 0 7.5 3.396 7.5 7.551s-3.334 7.551-7.5 7.551z"></path>
<path fill="#ff5050" style="fill: var(--color13, #ff5050)" d="M18.425 8.059c-4.088 0.040-7.421 3.396-7.421 7.551s3.333 7.551 7.5 7.551c1.945 0 3.69-0.759 5.040-1.958 0.278-0.239 0.516-0.519 0.754-0.799h-1.548c-0.198-0.24-0.397-0.519-0.555-0.759h2.659c0.159-0.24 0.317-0.519 0.436-0.799h-3.531c-0.119-0.24-0.238-0.519-0.317-0.799h4.126c0.238-0.759 0.398-1.558 0.398-2.397 0-0.559-0.079-1.079-0.16-1.598h-4.602c0.040-0.28 0.119-0.519 0.198-0.799h4.126c-0.079-0.28-0.198-0.559-0.317-0.799h-3.492c0.119-0.28 0.278-0.519 0.436-0.799h2.659c-0.159-0.279-0.357-0.559-0.595-0.799h-1.469c0.238-0.28 0.477-0.52 0.755-0.759-1.31-1.239-3.088-2.038-5.032-2.038 0-0.080-0.007 0-0.047 0z"></path>
<path fill="#e52836" style="fill: var(--color14, #e52836)" d="M11.005 15.611c0 4.154 3.333 7.551 7.5 7.551 1.945 0 3.69-0.759 5.040-1.958 0.278-0.239 0.516-0.519 0.754-0.799h-1.548c-0.198-0.24-0.397-0.519-0.555-0.759h2.659c0.159-0.24 0.317-0.519 0.436-0.799h-3.531c-0.119-0.24-0.238-0.519-0.317-0.799h4.126c0.238-0.759 0.398-1.558 0.398-2.397 0-0.559-0.079-1.079-0.16-1.598h-4.602c0.040-0.28 0.119-0.519 0.198-0.799h4.126c-0.079-0.28-0.198-0.559-0.317-0.799h-3.492c0.119-0.28 0.278-0.519 0.436-0.799h2.659c-0.159-0.279-0.357-0.559-0.595-0.799h-1.469c0.238-0.28 0.477-0.52 0.755-0.759-1.31-1.239-3.088-2.038-5.032-2.038z"></path>
<path fill="#cb2026" style="fill: var(--color15, #cb2026)" d="M18.505 23.161c1.945 0 3.69-0.759 5.040-1.958 0.278-0.239 0.516-0.519 0.754-0.799h-1.548c-0.198-0.24-0.397-0.519-0.555-0.759h2.659c0.159-0.24 0.317-0.519 0.436-0.799h-3.531c-0.119-0.24-0.238-0.519-0.317-0.799h4.126c0.238-0.759 0.398-1.558 0.398-2.397 0-0.559-0.079-1.079-0.16-1.598h-4.602c0.040-0.28 0.119-0.519 0.198-0.799h4.126c-0.079-0.28-0.198-0.559-0.317-0.799h-3.492c0.119-0.28 0.278-0.519 0.436-0.799h2.659c-0.159-0.279-0.357-0.559-0.595-0.799h-1.469c0.238-0.28 0.477-0.52 0.755-0.759-1.31-1.239-3.088-2.038-5.032-2.038z"></path>
<path fill="#fff" style="fill: var(--color3, #fff)" d="M21.163 17.528l0.119-0.679c-0.040 0-0.119 0.040-0.198 0.040-0.279 0-0.319-0.16-0.279-0.24l0.239-1.398h0.436l0.119-0.759h-0.397l0.079-0.479h-0.794c0 0-0.476 2.637-0.476 2.957 0 0.479 0.278 0.679 0.635 0.679 0.238 0 0.438-0.080 0.517-0.12z"></path>
<path fill="#fff" style="fill: var(--color3, #fff)" d="M21.441 16.249c0 1.119 0.754 1.399 1.388 1.399 0.596 0 0.834-0.12 0.834-0.12l0.159-0.759c0 0-0.436 0.2-0.834 0.2-0.872 0-0.714-0.639-0.714-0.639h1.627c0 0 0.119-0.519 0.119-0.719 0-0.52-0.278-1.159-1.151-1.159-0.833-0.080-1.428 0.799-1.428 1.797zM22.829 15.091c0.438 0 0.358 0.52 0.358 0.559h-0.874c0-0.040 0.079-0.559 0.516-0.559z"></path>
<path fill="#fff" style="fill: var(--color3, #fff)" d="M27.869 17.528l0.159-0.879c0 0-0.397 0.2-0.674 0.2-0.555 0-0.793-0.439-0.793-0.919 0-0.959 0.476-1.478 1.031-1.478 0.397 0 0.714 0.24 0.714 0.24l0.119-0.839c0 0-0.476-0.2-0.912-0.2-0.912 0-1.826 0.799-1.826 2.317 0 0.999 0.477 1.678 1.429 1.678 0.317 0 0.754-0.12 0.754-0.12z"></path>
<path fill="#fff" style="fill: var(--color3, #fff)" d="M16.798 14.372c-0.555 0-0.952 0.16-0.952 0.16l-0.119 0.679c0 0 0.357-0.16 0.873-0.16 0.278 0 0.516 0.040 0.516 0.28 0 0.16-0.040 0.2-0.040 0.2s-0.238 0-0.357 0c-0.674 0-1.428 0.279-1.428 1.198 0 0.719 0.476 0.879 0.754 0.879 0.555 0 0.793-0.36 0.833-0.36l-0.040 0.32h0.714l0.319-2.197c0-0.959-0.794-0.999-1.072-0.999zM16.957 16.169c0 0.12-0.079 0.76-0.555 0.76-0.238 0-0.317-0.2-0.317-0.32 0-0.2 0.119-0.48 0.714-0.48 0.119 0.040 0.159 0.040 0.159 0.040z"></path>
<path fill="#fff" style="fill: var(--color3, #fff)" d="M18.624 17.608c0.198 0 1.19 0.040 1.19-1.039 0-0.999-0.952-0.799-0.952-1.199 0-0.2 0.159-0.28 0.436-0.28 0.119 0 0.555 0.040 0.555 0.040l0.119-0.719c0 0-0.278-0.080-0.754-0.080-0.595 0-1.19 0.24-1.19 1.039 0 0.919 0.992 0.84 0.992 1.199 0 0.24-0.278 0.279-0.476 0.279-0.357 0-0.714-0.12-0.714-0.12l-0.119 0.719c0.040 0.080 0.238 0.16 0.912 0.16z"></path>
<path fill="#fff" style="fill: var(--color3, #fff)" d="M34.457 13.733l-0.159 1.079c0 0-0.317-0.4-0.755-0.4-0.714 0-1.349 0.879-1.349 1.918 0 0.639 0.317 1.319 0.992 1.319 0.476 0 0.755-0.32 0.755-0.32l-0.040 0.279h0.793l0.595-3.835-0.833-0.040zM34.1 15.85c0 0.44-0.2 0.999-0.636 0.999-0.278 0-0.436-0.24-0.436-0.639 0-0.639 0.278-1.039 0.635-1.039 0.279 0 0.438 0.2 0.438 0.679z"></path>
<path fill="#fff" style="fill: var(--color3, #fff)" d="M12.472 17.569l0.477-2.877 0.079 2.877h0.555l1.031-2.877-0.436 2.877h0.833l0.636-3.835h-1.31l-0.793 2.357-0.040-2.357h-1.152l-0.635 3.835h0.754z"></path>
<path fill="#fff" style="fill: var(--color3, #fff)" d="M24.774 17.568c0.238-1.319 0.278-2.397 0.833-2.197 0.079-0.519 0.198-0.719 0.278-0.919 0 0-0.040 0-0.159 0-0.357 0-0.635 0.479-0.635 0.479l0.079-0.44h-0.754l-0.516 3.117h0.873v-0.040z"></path>
<path fill="#fff" style="fill: var(--color3, #fff)" d="M29.695 14.372c-0.557 0-0.953 0.16-0.953 0.16l-0.119 0.679c0 0 0.357-0.16 0.874-0.16 0.278 0 0.516 0.040 0.516 0.28 0 0.16-0.040 0.2-0.040 0.2s-0.238 0-0.357 0c-0.675 0-1.429 0.279-1.429 1.198 0 0.719 0.476 0.879 0.754 0.879 0.556 0 0.794-0.36 0.834-0.36l-0.040 0.32h0.714l0.317-2.197c0.040-0.959-0.793-0.999-1.071-0.999zM29.893 16.169c0 0.12-0.079 0.76-0.555 0.76-0.239 0-0.319-0.2-0.319-0.32 0-0.2 0.119-0.48 0.715-0.48 0.119 0.040 0.119 0.040 0.159 0.040z"></path>
<path fill="#fff" style="fill: var(--color3, #fff)" d="M31.441 17.568c0.238-1.319 0.278-2.397 0.833-2.197 0.079-0.519 0.198-0.719 0.278-0.919 0 0-0.040 0-0.159 0-0.357 0-0.635 0.479-0.635 0.479l0.079-0.44h-0.755l-0.516 3.117h0.874v-0.040z"></path>
<path fill="#dce5e5" style="fill: var(--color16, #dce5e5)" d="M19.933 16.969c0 0.479 0.278 0.679 0.635 0.679 0.279 0 0.517-0.080 0.596-0.12l0.119-0.679c-0.040 0-0.119 0.040-0.198 0.040-0.279 0-0.319-0.16-0.279-0.24l0.239-1.398h0.436l0.119-0.759h-0.397l0.079-0.479z"></path>
<path fill="#dce5e5" style="fill: var(--color16, #dce5e5)" d="M21.838 16.249c0 1.119 0.357 1.399 0.991 1.399 0.596 0 0.834-0.12 0.834-0.12l0.159-0.759c0 0-0.436 0.2-0.834 0.2-0.872 0-0.714-0.639-0.714-0.639h1.627c0 0 0.119-0.519 0.119-0.719 0-0.52-0.278-1.159-1.151-1.159-0.833-0.080-1.031 0.799-1.031 1.797zM22.829 15.091c0.438 0 0.517 0.52 0.517 0.559h-1.032c0-0.040 0.079-0.559 0.516-0.559z"></path>
<path fill="#dce5e5" style="fill: var(--color16, #dce5e5)" d="M27.869 17.528l0.159-0.879c0 0-0.397 0.2-0.674 0.2-0.555 0-0.793-0.439-0.793-0.919 0-0.959 0.476-1.478 1.031-1.478 0.397 0 0.714 0.24 0.714 0.24l0.119-0.839c0 0-0.476-0.2-0.912-0.2-0.912 0-1.428 0.799-1.428 2.317 0 0.999 0.079 1.678 1.031 1.678 0.317 0 0.754-0.12 0.754-0.12z"></path>
<path fill="#dce5e5" style="fill: var(--color16, #dce5e5)" d="M15.727 15.251c0 0 0.357-0.16 0.873-0.16 0.278 0 0.516 0.040 0.516 0.28 0 0.16-0.040 0.2-0.040 0.2s-0.238 0-0.357 0c-0.674 0-1.428 0.28-1.428 1.199 0 0.719 0.476 0.879 0.754 0.879 0.555 0 0.793-0.359 0.833-0.359l-0.040 0.32h0.714l0.319-2.198c0-0.919-0.794-0.959-1.112-0.959l-1.031 0.799zM17.353 16.169c0 0.12-0.476 0.76-0.952 0.76-0.238 0-0.317-0.2-0.317-0.32 0-0.2 0.119-0.48 0.714-0.48 0.119 0.040 0.555 0.040 0.555 0.040z"></path>
<path fill="#dce5e5" style="fill: var(--color16, #dce5e5)" d="M17.75 17.528c0 0 0.238 0.080 0.913 0.080 0.198 0 1.19 0.040 1.19-1.039 0-0.999-0.952-0.799-0.952-1.199 0-0.2 0.159-0.28 0.436-0.28 0.119 0 0.555 0.040 0.555 0.040l0.119-0.719c0 0-0.278-0.080-0.754-0.080-0.595 0-0.793 0.24-0.793 1.039 0 0.919 0.595 0.84 0.595 1.199 0 0.24-0.278 0.279-0.476 0.279z"></path>
<path fill="#dce5e5" style="fill: var(--color16, #dce5e5)" d="M34.298 14.812c0 0-0.317-0.4-0.755-0.4-0.714 0-0.952 0.879-0.952 1.918 0 0.639-0.079 1.318 0.595 1.318 0.476 0 0.755-0.32 0.755-0.32l-0.040 0.279h0.793l0.595-3.835-0.992 1.039zM34.258 15.851c0 0.439-0.358 0.998-0.794 0.998-0.278 0-0.436-0.24-0.436-0.639 0-0.639 0.278-1.039 0.635-1.039 0.279 0 0.596 0.2 0.596 0.68z"></path>
<path fill="#dce5e5" style="fill: var(--color16, #dce5e5)" d="M12.472 17.569l0.477-2.877 0.079 2.877h0.555l1.031-2.877-0.436 2.877h0.833l0.636-3.835h-0.993l-1.111 2.357-0.040-2.357h-0.436l-1.35 3.835h0.754z"></path>
<path fill="#dce5e5" style="fill: var(--color16, #dce5e5)" d="M23.941 17.568h0.833c0.238-1.319 0.278-2.397 0.833-2.197 0.079-0.519 0.198-0.719 0.278-0.919 0 0-0.040 0-0.159 0-0.357 0-0.635 0.479-0.635 0.479l0.079-0.44z"></path>
<path fill="#dce5e5" style="fill: var(--color16, #dce5e5)" d="M28.623 15.251c0 0 0.357-0.16 0.874-0.16 0.278 0 0.516 0.040 0.516 0.28 0 0.16-0.040 0.2-0.040 0.2s-0.238 0-0.357 0c-0.675 0-1.429 0.28-1.429 1.199 0 0.719 0.476 0.879 0.754 0.879 0.556 0 0.794-0.359 0.834-0.359l-0.040 0.32h0.714l0.317-2.198c0-0.919-0.793-0.959-1.111-0.959l-1.032 0.799zM30.25 16.169c0 0.12-0.476 0.759-0.952 0.759-0.239 0-0.319-0.2-0.319-0.319 0-0.2 0.119-0.48 0.715-0.48 0.159 0.040 0.555 0.040 0.555 0.040z"></path>
<path fill="#dce5e5" style="fill: var(--color16, #dce5e5)" d="M30.607 17.568h0.834c0.238-1.319 0.278-2.397 0.833-2.197 0.079-0.519 0.198-0.719 0.278-0.919 0 0-0.040 0-0.159 0-0.357 0-0.635 0.479-0.635 0.479l0.079-0.44z"></path>
</symbol>
<symbol id="photoshop-logo" viewBox="0 0 32 32">
<path fill="#001e36" style="fill: var(--color6, #001e36)" d="M5.667 0h20.667c0.744-0.001 1.481 0.149 2.169 0.441s1.313 0.72 1.839 1.26 0.944 1.181 1.229 1.886c0.284 0.706 0.43 1.461 0.43 2.225v20.376c0.001 0.764-0.145 1.52-0.43 2.225s-0.702 1.346-1.229 1.886c-0.526 0.54-1.151 0.968-1.839 1.26s-1.425 0.441-2.169 0.441h-20.667c-0.744 0.001-1.481-0.149-2.169-0.441s-1.313-0.72-1.839-1.26c-0.526-0.54-0.944-1.181-1.228-1.886s-0.43-1.461-0.43-2.225v-20.376c-0.001-0.764 0.145-1.52 0.43-2.225s0.702-1.346 1.228-1.886 1.151-0.968 1.839-1.26c0.688-0.292 1.425-0.441 2.169-0.441z"></path>
<path fill="#31a8ff" style="fill: var(--color7, #31a8ff)" d="M7.199 22.441v-14.072c0-0.096 0.040-0.15 0.133-0.15 0.227 0 0.44 0 0.747-0.014s0.653-0.014 1.014-0.027c0.36-0.014 0.747-0.014 1.16-0.027s0.813-0.014 1.213-0.014c1.093 0 2 0.137 2.747 0.424 0.669 0.233 1.28 0.616 1.787 1.122 0.43 0.442 0.762 0.974 0.974 1.559 0.202 0.57 0.306 1.171 0.307 1.777 0 1.176-0.267 2.147-0.8 2.913-0.536 0.765-1.284 1.346-2.146 1.668-0.907 0.342-1.907 0.465-3 0.465-0.32 0-0.533 0-0.666-0.014s-0.32-0.014-0.573-0.014v4.39c0.003 0.023 0.001 0.046-0.004 0.067s-0.016 0.043-0.030 0.060c-0.014 0.018-0.031 0.033-0.050 0.044s-0.041 0.018-0.063 0.020h-2.586c-0.107 0-0.16-0.055-0.16-0.178zM10.106 10.858v4.595c0.187 0.014 0.36 0.027 0.52 0.027h0.707c0.521 0.001 1.038-0.083 1.533-0.246 0.425-0.128 0.805-0.38 1.093-0.725 0.28-0.342 0.414-0.807 0.414-1.409 0.013-0.427-0.094-0.849-0.307-1.217-0.222-0.355-0.549-0.628-0.934-0.78-0.501-0.201-1.036-0.294-1.573-0.273-0.347 0-0.653 0-0.907 0.014-0.182-0.012-0.365-0.007-0.546 0.014z"></path>
<path fill="#31a8ff" style="fill: var(--color7, #31a8ff)" d="M25.601 14.619c-0.402-0.218-0.834-0.374-1.28-0.465-0.49-0.114-0.991-0.173-1.493-0.178-0.27-0.009-0.54 0.023-0.8 0.096-0.166 0.036-0.313 0.133-0.413 0.273-0.067 0.111-0.105 0.239-0.107 0.37 0.006 0.13 0.053 0.254 0.133 0.355 0.127 0.152 0.28 0.277 0.454 0.369 0.307 0.164 0.627 0.314 0.947 0.451 0.72 0.249 1.409 0.584 2.053 0.999 0.438 0.282 0.8 0.672 1.053 1.135 0.214 0.436 0.32 0.92 0.307 1.409 0.011 0.646-0.17 1.281-0.52 1.819-0.372 0.546-0.891 0.969-1.493 1.217-0.653 0.288-1.454 0.438-2.414 0.438-0.608 0.003-1.216-0.057-1.813-0.178-0.471-0.084-0.928-0.23-1.36-0.438-0.046-0.024-0.085-0.061-0.111-0.107s-0.038-0.099-0.035-0.152v-2.379c-0.001-0.023 0.003-0.047 0.012-0.068s0.023-0.041 0.041-0.055c0.019-0.011 0.041-0.016 0.062-0.014s0.042 0.012 0.058 0.027c0.514 0.311 1.071 0.537 1.653 0.67 0.514 0.137 1.043 0.206 1.573 0.205 0.507 0 0.867-0.068 1.107-0.191 0.107-0.051 0.198-0.131 0.261-0.233s0.098-0.22 0.099-0.341c0-0.191-0.107-0.369-0.32-0.547s-0.653-0.383-1.307-0.643c-0.67-0.242-1.307-0.573-1.893-0.984-0.418-0.306-0.764-0.703-1.013-1.163-0.213-0.432-0.318-0.911-0.307-1.395 0.002-0.584 0.159-1.156 0.454-1.655 0.339-0.549 0.825-0.986 1.4-1.258 0.627-0.328 1.414-0.479 2.36-0.479 0.554 0 1.106 0.041 1.653 0.123 0.394 0.055 0.779 0.16 1.147 0.314 0.059 0.021 0.106 0.065 0.133 0.123 0.015 0.054 0.024 0.108 0.026 0.164v2.229c0 0.027-0.005 0.053-0.017 0.077s-0.028 0.044-0.049 0.060c-0.078 0.028-0.163 0.028-0.24 0z"></path>
</symbol>
<symbol id="telegramm-icon" viewBox="0 0 38 32">
<path fill="#fff" style="fill: var(--color3, #fff)" d="M37.549 0.876c-0.466-0.565-1.164-0.876-1.965-0.876-0.436 0-0.897 0.091-1.371 0.271l-32.283 12.221c-1.713 0.649-1.944 1.622-1.929 2.144s0.301 1.481 2.049 2.032c0.010 0.003 0.021 0.006 0.031 0.010l4.527 1.284 22.050-11.171c0.549-0.279 1.223-0.062 1.503 0.483 0.22 0.428 0.132 0.932-0.182 1.263l-12.259 12.92-0.349 1.405 10.444 8.341c0.006 0.004 0.010 0.008 0.016 0.012 0.668 0.514 1.397 0.785 2.109 0.785 1.391 0 2.499-1.021 2.822-2.601l5.289-25.903c0.212-1.039 0.034-1.97-0.501-2.62zM15.621 20.643c0.045-0.179 0.134-0.35 0.271-0.494l8.044-8.477-14.928 7.563 3.39 9.614c0.193 0.548 0.481 1.014 0.836 1.379l2.387-9.585zM17.606 30.14c-0.694 0.633-1.486 0.971-2.291 0.977l1.464-5.882 3.307 2.64-2.48 2.265z"></path>
</symbol>
<symbol id="tictok-icon" viewBox="0 0 27 32">
<path fill="#fff" style="fill: var(--color3, #fff)" d="M21.482 5.013c-1.18-1.387-1.831-3.169-1.831-5.013h-5.335v22.044c-0.042 1.193-0.531 2.323-1.365 3.152s-1.948 1.292-3.108 1.293c-2.452 0-4.489-2.063-4.489-4.623 0-3.058 2.867-5.351 5.82-4.409v-5.618c-5.958-0.818-11.173 3.947-11.173 10.026 0 5.92 4.766 10.133 9.826 10.133 5.422 0 9.826-4.533 9.826-10.133v-11.182c2.163 1.6 4.762 2.458 7.425 2.453v-5.493c0 0-3.246 0.16-5.595-2.631z"></path>
</symbol>
<symbol id="visa-icon" viewBox="0 0 47 32">
<path fill="#fff" style="fill: var(--color3, #fff)" d="M4.923 0h36.923c2.719 0 4.923 2.204 4.923 4.923v22.154c0 2.719-2.204 4.923-4.923 4.923h-36.923c-2.719 0-4.923-2.204-4.923-4.923v-22.154c0-2.719 2.204-4.923 4.923-4.923z"></path>
<path fill="#059bbf" style="fill: var(--color17, #059bbf)" d="M22.047 10.052h-3.253l-2.032 11.923h3.248l2.037-11.923z"></path>
<path fill="#059bbf" style="fill: var(--color17, #059bbf)" d="M12.363 21.963l5.117-11.903h-3.443l-3.183 8.133-0.34-1.228c-0.624-1.477-2.407-3.603-4.501-4.942l2.909 9.944 3.44-0.004z"></path>
<path fill="#059bbf" style="fill: var(--color17, #059bbf)" d="M31.326 18.078c0.012-1.353-0.857-2.386-2.73-3.239-1.138-0.551-1.832-0.918-1.824-1.477 0-0.494 0.588-1.024 1.861-1.024 1.065-0.017 1.832 0.216 2.432 0.457l0.294 0.135 0.441-2.583c-0.645-0.241-1.653-0.498-2.913-0.498-3.211 0-5.472 1.616-5.493 3.933-0.020 1.714 1.616 2.669 2.849 3.24 1.264 0.582 1.689 0.954 1.681 1.477-0.008 0.798-1.008 1.162-1.942 1.162-1.302 0-1.992-0.179-3.061-0.625l-0.416-0.191-0.457 2.672c0.758 0.331 2.162 0.621 3.619 0.633 3.415 0 5.635-1.595 5.66-4.073z"></path>
<path fill="#059bbf" style="fill: var(--color17, #059bbf)" d="M35.19 20.188c0.371 0 3.689 0.004 4.162 0.004 0.097 0.415 0.395 1.787 0.395 1.787h3.016l-2.632-11.915h-2.51c-0.779 0-1.358 0.212-1.701 0.987l-4.827 10.927h3.415c0 0 0.555-1.469 0.681-1.791zM37.418 14.415c-0.017 0.033 0.269-0.69 0.433-1.139l0.22 1.028c0 0 0.62 2.848 0.751 3.444h-2.698c0.27-0.685 1.294-3.334 1.294-3.334z"></path>
<path fill="#059bbf" style="fill: var(--color17, #059bbf)" d="M44.005-0.127h-41.24c-1.526 0-2.764 1.238-2.764 2.764v2.87h46.769v-2.87c0-1.526-1.238-2.764-2.764-2.764z"></path>
<path fill="#f79f1a" style="fill: var(--color18, #f79f1a)" d="M10.38 16.186l-1.098-5.268c-0.188-0.727-0.734-0.943-1.416-0.971h-5.035l-0.045 0.24c3.921 0.951 6.516 3.244 7.594 5.999z"></path>
<path fill="#f79f1a" style="fill: var(--color18, #f79f1a)" d="M44.005 32.127h-41.24c-1.526 0-2.764-1.238-2.764-2.765v-2.869h46.769v2.869c0 1.527-1.238 2.765-2.764 2.765z"></path>
</symbol>
<symbol id="youtube-icon" viewBox="0 0 47 32">
<path fill="#fff" style="fill: var(--color3, #fff)" d="M44.938 3.084c-1.272-2.246-2.654-2.659-5.467-2.816-2.81-0.189-9.877-0.268-15.999-0.268-6.133 0-13.203 0.079-16.010 0.265-2.807 0.16-4.191 0.57-5.477 2.819-1.311 2.243-1.985 6.106-1.985 12.908 0 0.006 0 0.009 0 0.009 0 0.006 0 0.008 0 0.008v0.006c0 6.773 0.675 10.665 1.985 12.885 1.286 2.246 2.667 2.653 5.474 2.842 2.81 0.163 9.88 0.259 16.013 0.259 6.122 0 13.188-0.096 16.002-0.256 2.813-0.189 4.195-0.596 5.467-2.842 1.323-2.219 1.992-6.112 1.992-12.885 0 0 0-0.009 0-0.014v-0.008c0-6.805-0.669-10.668-1.995-12.911z"></path>
<path fill="#1a1a1a" style="fill: var(--color19, #1a1a1a)" d="M17.6 24.728v-17.455l14.667 8.727-14.667 8.728z"></path>
</symbol>

<symbol id="coursor" viewBox="0 0 68 32">
<path fill="#de37d1" style="fill: var(--color1, #de37d1)" d="M2.356 0.355l13.94 5.673c1.405 0.572 1.398 2.563-0.011 3.124l-4.738 1.89c-0.444 0.177-0.793 0.535-0.957 0.984l-1.516 4.132c-0.526 1.435-2.538 1.484-3.133 0.076l-5.772-13.664c-0.584-1.383 0.796-2.781 2.186-2.215z"></path>
<path fill="#de37d1" style="fill: var(--color1, #de37d1)" d="M25.263 15.158h34.526c4.651 0 8.421 3.77 8.421 8.421s-3.77 8.421-8.421 8.421h-34.526c-4.651 0-8.421-3.77-8.421-8.421s3.77-8.421 8.421-8.421z"></path>
<path fill="#fff" style="fill: var(--color2, #fff)" d="M33.092 26.947l-1.584-4.217h-0.026q0.020 0.209 0.033 0.563t0.013 0.737v2.918h-0.559v-4.811h0.896l1.482 3.942h0.028l1.508-3.942h0.89v4.811h-0.6v-2.957q0-0.35 0.016-0.694 0.018-0.344 0.031-0.559h-0.028l-1.602 4.211h-0.498zM38.393 23.27q0.466 0 0.798 0.202 0.334 0.201 0.511 0.569 0.179 0.367 0.179 0.859v0.357h-2.472q0.013 0.613 0.313 0.934 0.301 0.319 0.839 0.319 0.344 0 0.61-0.064t0.549-0.186v0.52q-0.276 0.12-0.546 0.178t-0.64 0.058q-0.511 0-0.906-0.209-0.393-0.209-0.613-0.623-0.219-0.414-0.219-1.013 0-0.594 0.199-1.018t0.559-0.653 0.839-0.229zM38.387 23.753q-0.424 0-0.671 0.273-0.245 0.273-0.293 0.758h1.839q-0.007-0.457-0.215-0.743-0.209-0.288-0.66-0.288zM41.392 23.337v1.502h1.961v-1.502h0.592v3.61h-0.592v-1.61h-1.961v1.61h-0.594v-3.61h0.594zM47.583 23.836h-1.179v3.112h-0.586v-3.112h-1.166v-0.498h2.931v0.498zM51.369 25.135q0 0.896-0.456 1.388-0.454 0.492-1.229 0.492-0.479 0-0.854-0.219-0.373-0.219-0.589-0.64t-0.215-1.021q0-0.896 0.451-1.38 0.452-0.485 1.227-0.485 0.492 0 0.865 0.219 0.375 0.219 0.587 0.633t0.212 1.013zM48.64 25.135q0 0.64 0.252 1.015 0.253 0.373 0.806 0.373 0.546 0 0.801-0.373 0.257-0.375 0.257-1.015t-0.257-1.003q-0.255-0.363-0.808-0.363t-0.803 0.363q-0.248 0.364-0.248 1.003zM54.023 23.27q0.666 0 1.074 0.465 0.408 0.464 0.408 1.4 0 0.923-0.408 1.401t-1.081 0.479q-0.418 0-0.691-0.158-0.273-0.16-0.428-0.368h-0.041q0.013 0.115 0.026 0.291 0.015 0.174 0.015 0.303v1.482h-0.594v-5.227h0.485l0.081 0.492h0.028q0.161-0.237 0.423-0.398 0.263-0.161 0.702-0.161zM53.915 23.768q-0.553 0-0.778 0.311-0.225 0.309-0.238 0.942v0.114q0 0.668 0.219 1.028t0.811 0.36q0.331 0 0.543-0.181 0.212-0.182 0.316-0.495 0.105-0.314 0.105-0.719 0-0.62-0.24-0.99-0.238-0.37-0.737-0.37z"></path>
</symbol>
<symbol id="logo-footer" viewBox="0 0 124 32">
<path fill="#fec830" style="fill: var(--color1, #fec830)" d="M122.159 0l-75.551 4.609 1.667 27.391 75.551-4.609-1.667-27.391z"></path>
<path fill="#fff" style="fill: var(--color2, #fff)" d="M57.043 11.983l2.723-0.157 0.755 11.669-2.723 0.157-0.755-11.669z"></path>
<path fill="#fff" style="fill: var(--color2, #fff)" d="M66.277 13.823l-3.525 0.213-0.143-2.325 9.596-0.58 0.143 2.325-3.524 0.213 0.563 9.133-2.547 0.154-0.568-9.129 0.005-0.004z"></path>
<path fill="#fff" style="fill: var(--color2, #fff)" d="M73.053 18.005c-0.145-2.479 1.455-4.621 3.921-4.778 2.829-0.175 4.257 1.99 4.407 4.455 0.013 0.197 0.013 0.422 0.004 0.65l-5.891 0.372c0.304 1.098 1.098 1.641 2.173 1.569 0.811-0.054 1.375-0.35 2.001-1.018l1.449 1.157c-0.726 1.053-1.832 1.739-3.366 1.838-2.547 0.161-4.534-1.551-4.693-4.241l-0.005-0.004zM78.984 16.939c-0.207-1.094-0.881-1.798-1.895-1.73-0.995 0.063-1.599 0.829-1.727 1.959l3.618-0.224 0.004-0.004z"></path>
<path fill="#fff" style="fill: var(--color2, #fff)" d="M84.183 17.31c-0.145-2.479 1.455-4.621 3.921-4.778 2.829-0.175 4.257 1.99 4.407 4.455 0.013 0.197 0.013 0.422 0.004 0.65l-5.891 0.372c0.304 1.098 1.098 1.641 2.173 1.569 0.811-0.054 1.375-0.35 2.001-1.017l1.45 1.157c-0.732 1.053-1.833 1.739-3.366 1.838-2.547 0.161-4.534-1.551-4.693-4.241l-0.005-0.004zM90.114 16.243c-0.211-1.094-0.881-1.798-1.895-1.73-0.995 0.063-1.599 0.829-1.723 1.959l3.618-0.224v-0.004z"></path>
<path fill="#fff" style="fill: var(--color2, #fff)" d="M95.304 12.299l2.424-0.15 0.076 1.213c0.511-0.757 1.19-1.452 2.415-1.527 1.829-0.115 2.975 1.036 3.095 3.002l0.337 5.547-2.424 0.151-0.289-4.781c-0.067-1.151-0.648-1.709-1.572-1.652s-1.473 0.686-1.407 1.837l0.289 4.781-2.424 0.15-0.52-8.566v-0.004z"></path>
<path fill="#fff" style="fill: var(--color2, #fff)" d="M106.435 19.765l0.956-1.699c0.977 0.633 1.983 0.926 2.794 0.876 0.712-0.045 1.018-0.325 0.995-0.745-0.035-0.538-0.883-0.664-1.856-0.899-1.23-0.285-2.645-0.772-2.749-2.498-0.109-1.78 1.258-2.86 3.002-2.964 1.1-0.072 2.321 0.235 3.299 0.813l-0.833 1.766c-0.883-0.456-1.767-0.714-2.394-0.673-0.595 0.036-0.893 0.316-0.87 0.696 0.027 0.492 0.87 0.664 1.83 0.935 1.239 0.334 2.678 0.836 2.776 2.462 0.117 1.943-1.267 2.914-3.141 3.022-1.222 0.077-2.605-0.244-3.809-1.093z"></path>
<path fill="#fff" style="fill: var(--color2, #fff)" d="M49.058 12.729l-9.264-12.033-39.793 2.459 1.653 27.454 39.794-2.454 7.779-12.683 0.861-1.419-1.029-1.319v-0.004z"></path>
<path fill="#1a1a1a" style="fill: var(--color3, #1a1a1a)" d="M21.227 14.584l-5.52 0.336 0.167 2.67 2.577-0.157 0.079 1.307c-0.556 0.419-1.293 0.667-2.141 0.723-1.9 0.119-3.379-1.256-3.504-3.259-0.056-0.916 0.213-1.8 0.765-2.485 0.547-0.681 1.307-1.082 2.137-1.132 1.288-0.078 2.067 0.285 2.966 0.948l0.19 0.138 1.766-2.416-0.181-0.138c-1.456-1.081-2.851-1.478-4.825-1.358-3.55 0.216-6.164 3.13-5.951 6.628 0.213 3.466 2.818 5.873 6.271 5.873 0.153 0 0.306 0 0.459-0.014 1.914-0.115 3.596-0.861 5.005-2.209l0.079-0.074-0.329-5.39-0.009 0.010z"></path>
<path fill="#1a1a1a" style="fill: var(--color3, #1a1a1a)" d="M37.558 14.915c-0.217-3.561-3.051-6.084-6.608-5.858-3.516 0.221-6.103 3.134-5.895 6.636 0.203 3.414 2.826 5.872 6.179 5.872 0.14 0 0.284 0 0.424-0.014 3.511-0.221 6.103-3.134 5.895-6.636h0.004zM31.528 18.731c-0.849 0.051-1.666-0.226-2.284-0.787-0.673-0.607-1.070-1.473-1.128-2.439-0.054-0.939 0.208-1.822 0.74-2.49 0.542-0.676 1.336-1.081 2.23-1.137 0.068 0 0.135-0.005 0.203-0.005 0.776 0 1.507 0.276 2.081 0.796 0.673 0.608 1.070 1.473 1.128 2.439 0.118 1.951-1.16 3.506-2.97 3.626v-0.004z"></path>
</symbol>
<symbol id="arr-choice-lng" viewBox="0 0 56 32">
<path fill="none" stroke="#d6d6d6" style="stroke: var(--color1, #d6d6d6)" stroke-linejoin="round" stroke-linecap="round" stroke-miterlimit="4" stroke-width="7.9961" d="M4.014 4.014l23.988 23.988 23.988-23.988"></path>
</symbol>
<symbol id="clear-btn" viewBox="0 0 32 32">
<path fill="#999" style="fill: var(--color1, #999)" d="M19.547 16l11.8-11.8c0.871-0.871 0.871-2.282 0-3.153l-0.394-0.394c-0.871-0.871-2.282-0.871-3.153 0l-11.8 11.8-11.8-11.8c-0.871-0.871-2.282-0.871-3.153 0l-0.394 0.394c-0.871 0.871-0.871 2.282 0 3.153l11.8 11.8-11.8 11.8c-0.871 0.871-0.871 2.282 0 3.153l0.394 0.394c0.871 0.871 2.282 0.871 3.153 0l11.8-11.8 11.8 11.8c0.871 0.871 2.282 0.871 3.153 0l0.394-0.394c0.871-0.871 0.871-2.282 0-3.153l-11.8-11.8z"></path>
</symbol>
<symbol id="programm-btn" viewBox="0 0 46 32">
<path fill="#653cd9" style="fill: var(--color1, #653cd9)" d="M23.094 32l23.094-32h-46.188l23.094 32z"></path>
</symbol>
<symbol id="one" viewBox="0 0 13 32">
<path fill="#653cd9" style="fill: var(--color1, #653cd9)" d="M12.686 0h-4.705l-7.981 5.221v4.619l7.648-4.995h0.193v27.155h4.845v-32z"></path>
</symbol>
<symbol id="mob-icon" viewBox="0 0 23 32">
<path fill="#fff" style="fill: var(--color1, #fff)" d="M4.364 0c-2.41 0-4.364 1.954-4.364 4.364v23.273c0 2.41 1.954 4.364 4.364 4.364h14.545c2.41 0 4.364-1.954 4.364-4.364v-23.273c0-2.41-1.954-4.364-4.364-4.364h-14.545zM2.909 4.364c0-0.803 0.651-1.455 1.455-1.455h14.545c0.803 0 1.455 0.651 1.455 1.455v23.273c0 0.803-0.651 1.455-1.455 1.455h-14.545c-0.803 0-1.455-0.651-1.455-1.455v-23.273zM11.636 23.273c-0.803 0-1.455 0.651-1.455 1.455s0.651 1.455 1.455 1.455h0.014c0.804 0 1.455-0.651 1.455-1.455s-0.651-1.455-1.455-1.455h-0.014z"></path>
</symbol>
</defs>
</svg>
